<svg xmlns="http://www.w3.org/2000/svg" width="1240" height="814" viewBox="0 0 1240 814">
<rect width="100%" height="100%" fill="#fbfaf7"/>
<style>text{font-family:Inter,Arial,sans-serif}.h{font-size:30px;font-weight:700;fill:#252525}.k{font-size:13px;font-weight:700;letter-spacing:3px;fill:#8a8882}.s{font-size:18px;fill:#595751}.tiny{font-size:12px;fill:#77746e}.unit{font-size:15px;fill:#252525;font-weight:600}.token{font-size:14px;fill:#2a2926}</style>
<text x="40" y="42" class="k">TOKENS WITHOUT LETTERS · VISUAL PROTOTYPE</text>
<text x="40" y="90" class="h">Korean syllable-local emphasis</text>
<text x="40" y="126" class="s">Input: 와 진ㄴㄴㄴ짜 오래 걸렸다</text>
<text x="40" y="188" class="k">01 · SURFACE / LINEAR BASELINE</text>
<rect x="40" y="212" width="32" height="34" rx="7" fill="#eeeeea" stroke="#d8d5ce"/>
<text x="56.0" y="234" text-anchor="middle" class="token">와</text>
<rect x="96" y="212" width="32" height="34" rx="7" fill="#eeeeea" stroke="#d8d5ce"/>
<text x="112.0" y="234" text-anchor="middle" class="token">진</text>
<rect x="136" y="212" width="32" height="34" rx="7" fill="#eeeeea" stroke="#d8d5ce"/>
<text x="152.0" y="234" text-anchor="middle" class="token">ㄴ</text>
<rect x="176" y="212" width="32" height="34" rx="7" fill="#eeeeea" stroke="#d8d5ce"/>
<text x="192.0" y="234" text-anchor="middle" class="token">ㄴ</text>
<rect x="216" y="212" width="32" height="34" rx="7" fill="#eeeeea" stroke="#d8d5ce"/>
<text x="232.0" y="234" text-anchor="middle" class="token">ㄴ</text>
<rect x="256" y="212" width="32" height="34" rx="7" fill="#eeeeea" stroke="#d8d5ce"/>
<text x="272.0" y="234" text-anchor="middle" class="token">짜</text>
<rect x="312" y="212" width="32" height="34" rx="7" fill="#eeeeea" stroke="#d8d5ce"/>
<text x="328.0" y="234" text-anchor="middle" class="token">오</text>
<rect x="352" y="212" width="32" height="34" rx="7" fill="#eeeeea" stroke="#d8d5ce"/>
<text x="368.0" y="234" text-anchor="middle" class="token">래</text>
<rect x="408" y="212" width="32" height="34" rx="7" fill="#eeeeea" stroke="#d8d5ce"/>
<text x="424.0" y="234" text-anchor="middle" class="token">걸</text>
<rect x="448" y="212" width="32" height="34" rx="7" fill="#eeeeea" stroke="#d8d5ce"/>
<text x="464.0" y="234" text-anchor="middle" class="token">렸</text>
<rect x="488" y="212" width="32" height="34" rx="7" fill="#eeeeea" stroke="#d8d5ce"/>
<text x="504.0" y="234" text-anchor="middle" class="token">다</text>
<text x="40" y="304" class="k">02 · SPATIAL BLOCK LAYOUT</text>
<text x="40" y="326" class="tiny">Each block uses the same 3×3 canvas. English fills it with letters; Korean fills it with jamo, the alphabet-like pieces inside Hangul syllables.</text>
<rect x="40" y="350" width="90" height="90" rx="5" fill="#ffffff" stroke="#d8d5ce" stroke-width="1.2"/>
<rect x="40" y="350" width="30" height="30" fill="#76da83" fill-opacity="0.82" stroke="#fbfaf7"/>
<text x="55.0" y="371" text-anchor="middle" class="unit">ㅇ</text>
<rect x="70" y="350" width="30" height="30" fill="#ba76da" fill-opacity="0.82" stroke="#fbfaf7"/>
<text x="85.0" y="371" text-anchor="middle" class="unit">ㅘ</text>
<rect x="100" y="350" width="30" height="30" fill="#ffffff" fill-opacity="0.82" stroke="#fbfaf7"/>
<rect x="40" y="380" width="30" height="30" fill="#ffffff" fill-opacity="0.82" stroke="#fbfaf7"/>
<rect x="70" y="380" width="30" height="30" fill="#ffffff" fill-opacity="0.82" stroke="#fbfaf7"/>
<rect x="100" y="380" width="30" height="30" fill="#ffffff" fill-opacity="0.82" stroke="#fbfaf7"/>
<rect x="40" y="410" width="30" height="30" fill="#ffffff" fill-opacity="0.82" stroke="#fbfaf7"/>
<rect x="70" y="410" width="30" height="30" fill="#ffffff" fill-opacity="0.82" stroke="#fbfaf7"/>
<rect x="100" y="410" width="30" height="30" fill="#ffffff" fill-opacity="0.82" stroke="#fbfaf7"/>
<text x="40" y="456" class="tiny">와</text>
<rect x="169" y="350" width="90" height="90" rx="5" fill="#ffffff" stroke="#d8d5ce" stroke-width="1.2"/>
<rect x="169" y="350" width="30" height="30" fill="#76da92" fill-opacity="0.82" stroke="#fbfaf7"/>
<text x="184.0" y="371" text-anchor="middle" class="unit">ㅈ</text>
<rect x="199" y="350" width="30" height="30" fill="#da9776" fill-opacity="0.82" stroke="#fbfaf7"/>
<text x="214.0" y="371" text-anchor="middle" class="unit">ㅣ</text>
<rect x="229" y="350" width="30" height="30" fill="#dac476" fill-opacity="0.82" stroke="#fbfaf7"/>
<text x="244.0" y="371" text-anchor="middle" class="unit">ㄴ</text>
<rect x="169" y="380" width="30" height="30" fill="#ffffff" fill-opacity="0.82" stroke="#fbfaf7"/>
<rect x="199" y="380" width="30" height="30" fill="#ffffff" fill-opacity="0.82" stroke="#fbfaf7"/>
<rect x="229" y="380" width="30" height="30" fill="#ffffff" fill-opacity="0.82" stroke="#fbfaf7"/>
<rect x="169" y="410" width="30" height="30" fill="#ffffff" fill-opacity="0.82" stroke="#fbfaf7"/>
<rect x="199" y="410" width="30" height="30" fill="#ffffff" fill-opacity="0.82" stroke="#fbfaf7"/>
<rect x="229" y="410" width="30" height="30" fill="#ffffff" fill-opacity="0.82" stroke="#fbfaf7"/>
<text x="169" y="456" class="tiny">진</text>
<rect x="264" y="350" width="90" height="90" rx="5" fill="#ffffff" stroke="#d8d5ce" stroke-width="1.2"/>
<rect x="264" y="350" width="30" height="30" fill="#dac476" fill-opacity="0.82" stroke="#fbfaf7"/>
<text x="279.0" y="371" text-anchor="middle" class="unit">ㄴ</text>
<rect x="294" y="350" width="30" height="30" fill="#dac476" fill-opacity="0.82" stroke="#fbfaf7"/>
<text x="309.0" y="371" text-anchor="middle" class="unit">ㄴ</text>
<rect x="324" y="350" width="30" height="30" fill="#dac476" fill-opacity="0.82" stroke="#fbfaf7"/>
<text x="339.0" y="371" text-anchor="middle" class="unit">ㄴ</text>
<rect x="264" y="380" width="30" height="30" fill="#ffffff" fill-opacity="0.82" stroke="#fbfaf7"/>
<rect x="294" y="380" width="30" height="30" fill="#ffffff" fill-opacity="0.82" stroke="#fbfaf7"/>
<rect x="324" y="380" width="30" height="30" fill="#ffffff" fill-opacity="0.82" stroke="#fbfaf7"/>
<rect x="264" y="410" width="30" height="30" fill="#ffffff" fill-opacity="0.82" stroke="#fbfaf7"/>
<rect x="294" y="410" width="30" height="30" fill="#ffffff" fill-opacity="0.82" stroke="#fbfaf7"/>
<rect x="324" y="410" width="30" height="30" fill="#ffffff" fill-opacity="0.82" stroke="#fbfaf7"/>
<rect x="264" y="443" width="90" height="5" rx="2" fill="#f17a3d"/>
<text x="264" y="464" class="tiny">ㄴㄴㄴ</text>
<rect x="359" y="350" width="90" height="90" rx="5" fill="#ffffff" stroke="#d8d5ce" stroke-width="1.2"/>
<rect x="359" y="350" width="30" height="30" fill="#76daa1" fill-opacity="0.82" stroke="#fbfaf7"/>
<text x="374.0" y="371" text-anchor="middle" class="unit">ㅉ</text>
<rect x="389" y="350" width="30" height="30" fill="#76b9da" fill-opacity="0.82" stroke="#fbfaf7"/>
<text x="404.0" y="371" text-anchor="middle" class="unit">ㅏ</text>
<rect x="419" y="350" width="30" height="30" fill="#ffffff" fill-opacity="0.82" stroke="#fbfaf7"/>
<rect x="359" y="380" width="30" height="30" fill="#ffffff" fill-opacity="0.82" stroke="#fbfaf7"/>
<rect x="389" y="380" width="30" height="30" fill="#ffffff" fill-opacity="0.82" stroke="#fbfaf7"/>
<rect x="419" y="380" width="30" height="30" fill="#ffffff" fill-opacity="0.82" stroke="#fbfaf7"/>
<rect x="359" y="410" width="30" height="30" fill="#ffffff" fill-opacity="0.82" stroke="#fbfaf7"/>
<rect x="389" y="410" width="30" height="30" fill="#ffffff" fill-opacity="0.82" stroke="#fbfaf7"/>
<rect x="419" y="410" width="30" height="30" fill="#ffffff" fill-opacity="0.82" stroke="#fbfaf7"/>
<text x="359" y="456" class="tiny">짜</text>
<rect x="488" y="350" width="90" height="90" rx="5" fill="#ffffff" stroke="#d8d5ce" stroke-width="1.2"/>
<rect x="488" y="350" width="30" height="30" fill="#76da83" fill-opacity="0.82" stroke="#fbfaf7"/>
<text x="503.0" y="371" text-anchor="middle" class="unit">ㅇ</text>
<rect x="518" y="350" width="30" height="30" fill="#ab76da" fill-opacity="0.82" stroke="#fbfaf7"/>
<text x="533.0" y="371" text-anchor="middle" class="unit">ㅗ</text>
<rect x="548" y="350" width="30" height="30" fill="#ffffff" fill-opacity="0.82" stroke="#fbfaf7"/>
<rect x="488" y="380" width="30" height="30" fill="#ffffff" fill-opacity="0.82" stroke="#fbfaf7"/>
<rect x="518" y="380" width="30" height="30" fill="#ffffff" fill-opacity="0.82" stroke="#fbfaf7"/>
<rect x="548" y="380" width="30" height="30" fill="#ffffff" fill-opacity="0.82" stroke="#fbfaf7"/>
<rect x="488" y="410" width="30" height="30" fill="#ffffff" fill-opacity="0.82" stroke="#fbfaf7"/>
<rect x="518" y="410" width="30" height="30" fill="#ffffff" fill-opacity="0.82" stroke="#fbfaf7"/>
<rect x="548" y="410" width="30" height="30" fill="#ffffff" fill-opacity="0.82" stroke="#fbfaf7"/>
<text x="488" y="456" class="tiny">오</text>
<rect x="583" y="350" width="90" height="90" rx="5" fill="#ffffff" stroke="#d8d5ce" stroke-width="1.2"/>
<rect x="583" y="350" width="30" height="30" fill="#c3da76" fill-opacity="0.82" stroke="#fbfaf7"/>
<text x="598.0" y="371" text-anchor="middle" class="unit">ㄹ</text>
<rect x="613" y="350" width="30" height="30" fill="#76aada" fill-opacity="0.82" stroke="#fbfaf7"/>
<text x="628.0" y="371" text-anchor="middle" class="unit">ㅐ</text>
<rect x="643" y="350" width="30" height="30" fill="#ffffff" fill-opacity="0.82" stroke="#fbfaf7"/>
<rect x="583" y="380" width="30" height="30" fill="#ffffff" fill-opacity="0.82" stroke="#fbfaf7"/>
<rect x="613" y="380" width="30" height="30" fill="#ffffff" fill-opacity="0.82" stroke="#fbfaf7"/>
<rect x="643" y="380" width="30" height="30" fill="#ffffff" fill-opacity="0.82" stroke="#fbfaf7"/>
<rect x="583" y="410" width="30" height="30" fill="#ffffff" fill-opacity="0.82" stroke="#fbfaf7"/>
<rect x="613" y="410" width="30" height="30" fill="#ffffff" fill-opacity="0.82" stroke="#fbfaf7"/>
<rect x="643" y="410" width="30" height="30" fill="#ffffff" fill-opacity="0.82" stroke="#fbfaf7"/>
<text x="583" y="456" class="tiny">래</text>
<rect x="712" y="350" width="90" height="90" rx="5" fill="#ffffff" stroke="#d8d5ce" stroke-width="1.2"/>
<rect x="712" y="350" width="30" height="30" fill="#daa676" fill-opacity="0.82" stroke="#fbfaf7"/>
<text x="727.0" y="371" text-anchor="middle" class="unit">ㄱ</text>
<rect x="742" y="350" width="30" height="30" fill="#767dda" fill-opacity="0.82" stroke="#fbfaf7"/>
<text x="757.0" y="371" text-anchor="middle" class="unit">ㅓ</text>
<rect x="772" y="350" width="30" height="30" fill="#c3da76" fill-opacity="0.82" stroke="#fbfaf7"/>
<text x="787.0" y="371" text-anchor="middle" class="unit">ㄹ</text>
<rect x="712" y="380" width="30" height="30" fill="#ffffff" fill-opacity="0.82" stroke="#fbfaf7"/>
<rect x="742" y="380" width="30" height="30" fill="#ffffff" fill-opacity="0.82" stroke="#fbfaf7"/>
<rect x="772" y="380" width="30" height="30" fill="#ffffff" fill-opacity="0.82" stroke="#fbfaf7"/>
<rect x="712" y="410" width="30" height="30" fill="#ffffff" fill-opacity="0.82" stroke="#fbfaf7"/>
<rect x="742" y="410" width="30" height="30" fill="#ffffff" fill-opacity="0.82" stroke="#fbfaf7"/>
<rect x="772" y="410" width="30" height="30" fill="#ffffff" fill-opacity="0.82" stroke="#fbfaf7"/>
<text x="712" y="456" class="tiny">걸</text>
<rect x="807" y="350" width="90" height="90" rx="5" fill="#ffffff" stroke="#d8d5ce" stroke-width="1.2"/>
<rect x="807" y="350" width="30" height="30" fill="#c3da76" fill-opacity="0.82" stroke="#fbfaf7"/>
<text x="822.0" y="371" text-anchor="middle" class="unit">ㄹ</text>
<rect x="837" y="350" width="30" height="30" fill="#8d76da" fill-opacity="0.82" stroke="#fbfaf7"/>
<text x="852.0" y="371" text-anchor="middle" class="unit">ㅕ</text>
<rect x="867" y="350" width="30" height="30" fill="#78da76" fill-opacity="0.82" stroke="#fbfaf7"/>
<text x="882.0" y="371" text-anchor="middle" class="unit">ㅆ</text>
<rect x="807" y="380" width="30" height="30" fill="#ffffff" fill-opacity="0.82" stroke="#fbfaf7"/>
<rect x="837" y="380" width="30" height="30" fill="#ffffff" fill-opacity="0.82" stroke="#fbfaf7"/>
<rect x="867" y="380" width="30" height="30" fill="#ffffff" fill-opacity="0.82" stroke="#fbfaf7"/>
<rect x="807" y="410" width="30" height="30" fill="#ffffff" fill-opacity="0.82" stroke="#fbfaf7"/>
<rect x="837" y="410" width="30" height="30" fill="#ffffff" fill-opacity="0.82" stroke="#fbfaf7"/>
<rect x="867" y="410" width="30" height="30" fill="#ffffff" fill-opacity="0.82" stroke="#fbfaf7"/>
<text x="807" y="456" class="tiny">렸</text>
<rect x="902" y="350" width="90" height="90" rx="5" fill="#ffffff" stroke="#d8d5ce" stroke-width="1.2"/>
<rect x="902" y="350" width="30" height="30" fill="#dad376" fill-opacity="0.82" stroke="#fbfaf7"/>
<text x="917.0" y="371" text-anchor="middle" class="unit">ㄷ</text>
<rect x="932" y="350" width="30" height="30" fill="#76b9da" fill-opacity="0.82" stroke="#fbfaf7"/>
<text x="947.0" y="371" text-anchor="middle" class="unit">ㅏ</text>
<rect x="962" y="350" width="30" height="30" fill="#ffffff" fill-opacity="0.82" stroke="#fbfaf7"/>
<rect x="902" y="380" width="30" height="30" fill="#ffffff" fill-opacity="0.82" stroke="#fbfaf7"/>
<rect x="932" y="380" width="30" height="30" fill="#ffffff" fill-opacity="0.82" stroke="#fbfaf7"/>
<rect x="962" y="380" width="30" height="30" fill="#ffffff" fill-opacity="0.82" stroke="#fbfaf7"/>
<rect x="902" y="410" width="30" height="30" fill="#ffffff" fill-opacity="0.82" stroke="#fbfaf7"/>
<rect x="932" y="410" width="30" height="30" fill="#ffffff" fill-opacity="0.82" stroke="#fbfaf7"/>
<rect x="962" y="410" width="30" height="30" fill="#ffffff" fill-opacity="0.82" stroke="#fbfaf7"/>
<text x="902" y="456" class="tiny">다</text>
<text x="40" y="532" class="k">03 · LETTERFORM-REMOVED COLOR VIEW</text>
<text x="40" y="554" class="tiny">Fill colors replace letterforms. Bottom bars mark chat cues built for colloquial written language: reaction, emphasis, and shorthand.</text>
<rect x="40.0" y="576.0" width="18.0" height="32" rx="3" fill="#76da83"/>
<rect x="60.0" y="576.0" width="18.0" height="32" rx="3" fill="#ba76da"/>
<rect x="103.0" y="576.0" width="18.0" height="32" rx="3" fill="#76da92"/>
<rect x="123.0" y="576.0" width="18.0" height="32" rx="3" fill="#da9776"/>
<rect x="143.0" y="576.0" width="18.0" height="32" rx="3" fill="#dac476"/>
<rect x="168.0" y="576.0" width="18.0" height="32" rx="3" fill="#dac476"/>
<rect x="168.0" y="603.0" width="18.0" height="5" rx="1" fill="#f17a3d"/>
<rect x="188.0" y="576.0" width="18.0" height="32" rx="3" fill="#dac476"/>
<rect x="188.0" y="603.0" width="18.0" height="5" rx="1" fill="#f17a3d"/>
<rect x="208.0" y="576.0" width="18.0" height="32" rx="3" fill="#dac476"/>
<rect x="208.0" y="603.0" width="18.0" height="5" rx="1" fill="#f17a3d"/>
<rect x="233.0" y="576.0" width="18.0" height="32" rx="3" fill="#76daa1"/>
<rect x="253.0" y="576.0" width="18.0" height="32" rx="3" fill="#76b9da"/>
<rect x="296.0" y="576.0" width="18.0" height="32" rx="3" fill="#76da83"/>
<rect x="316.0" y="576.0" width="18.0" height="32" rx="3" fill="#ab76da"/>
<rect x="341.0" y="576.0" width="18.0" height="32" rx="3" fill="#c3da76"/>
<rect x="361.0" y="576.0" width="18.0" height="32" rx="3" fill="#76aada"/>
<rect x="404.0" y="576.0" width="18.0" height="32" rx="3" fill="#daa676"/>
<rect x="424.0" y="576.0" width="18.0" height="32" rx="3" fill="#767dda"/>
<rect x="444.0" y="576.0" width="18.0" height="32" rx="3" fill="#c3da76"/>
<rect x="469.0" y="576.0" width="18.0" height="32" rx="3" fill="#c3da76"/>
<rect x="489.0" y="576.0" width="18.0" height="32" rx="3" fill="#8d76da"/>
<rect x="509.0" y="576.0" width="18.0" height="32" rx="3" fill="#78da76"/>
<rect x="534.0" y="576.0" width="18.0" height="32" rx="3" fill="#dad376"/>
<rect x="554.0" y="576.0" width="18.0" height="32" rx="3" fill="#76b9da"/>
<text x="40" y="650" class="k">04 · TOKEN TAX SKETCH</text>
<text x="40" y="670" class="tiny">surface chunks = flat visible units; structure groups = 3×3 capacity-based blocks. token tax saved = surface − groups; Δ = groups − surface.</text>
<rect x="40" y="698" width="210" height="76" rx="14" fill="#ffffff" stroke="#e3dfd6"/>
<text x="58" y="726" class="tiny">surface chunks</text>
<text x="58" y="756" class="h">11</text>
<rect x="270" y="698" width="210" height="76" rx="14" fill="#ffffff" stroke="#e3dfd6"/>
<text x="288" y="726" class="tiny">structure groups</text>
<text x="288" y="756" class="h">9</text>
<rect x="500" y="698" width="210" height="76" rx="14" fill="#ffffff" stroke="#e3dfd6"/>
<text x="518" y="726" class="tiny">token tax saved</text>
<text x="518" y="756" class="h">2 (Δ -2)</text>
<rect x="730" y="698" width="210" height="76" rx="14" fill="#ffffff" stroke="#e3dfd6"/>
<text x="748" y="726" class="tiny">chat cues</text>
<text x="748" y="756" class="h">1</text>
</svg>